<mxfile host="Electron" modified="2024-01-31T01:08:22.994Z" agent="Mozilla/5.0 (X11; Linux x86_64) AppleWebKit/537.36 (KHTML, like Gecko) draw.io/23.0.2 Chrome/120.0.6099.109 Electron/28.1.0 Safari/537.36" etag="7v4EuSvUwIaytdU4A5i9" version="23.0.2" type="device">
  <diagram name="Page-1" id="TYRAuFTysEqbZ0BNZdqt">
    <mxGraphModel dx="1068" dy="843" grid="1" gridSize="10" guides="1" tooltips="1" connect="1" arrows="1" fold="1" page="1" pageScale="1" pageWidth="827" pageHeight="1169" math="0" shadow="0">
      <root>
        <mxCell id="0" />
        <mxCell id="1" parent="0" />
        <mxCell id="1XhiRQtglJ1ex-sSq87N-2" value="&lt;font style=&quot;font-size: 24px;&quot;&gt;&quot;/movies&quot; entry points flow diagram&lt;/font&gt;" style="text;html=1;align=center;verticalAlign=middle;resizable=0;points=[];autosize=1;strokeColor=none;fillColor=none;" vertex="1" parent="1">
          <mxGeometry x="10" y="20" width="400" height="40" as="geometry" />
        </mxCell>
        <mxCell id="1XhiRQtglJ1ex-sSq87N-93" value="" style="group" vertex="1" connectable="0" parent="1">
          <mxGeometry x="20" y="70" width="735" height="310" as="geometry" />
        </mxCell>
        <mxCell id="1XhiRQtglJ1ex-sSq87N-1" value="get&lt;br&gt;request" style="ellipse;whiteSpace=wrap;html=1;aspect=fixed;flipH=0;container=0;" vertex="1" parent="1XhiRQtglJ1ex-sSq87N-93">
          <mxGeometry y="25" width="50" height="50" as="geometry" />
        </mxCell>
        <mxCell id="1XhiRQtglJ1ex-sSq87N-3" value="Cached?" style="rhombus;whiteSpace=wrap;html=1;flipH=0;container=0;" vertex="1" parent="1XhiRQtglJ1ex-sSq87N-93">
          <mxGeometry x="365" y="10" width="80" height="80" as="geometry" />
        </mxCell>
        <mxCell id="1XhiRQtglJ1ex-sSq87N-5" value="cache" style="whiteSpace=wrap;html=1;flipH=0;container=0;" vertex="1" parent="1XhiRQtglJ1ex-sSq87N-93">
          <mxGeometry x="510" y="25" width="70" height="50" as="geometry" />
        </mxCell>
        <mxCell id="1XhiRQtglJ1ex-sSq87N-6" value="" style="edgeStyle=orthogonalEdgeStyle;rounded=0;orthogonalLoop=1;jettySize=auto;html=1;" edge="1" parent="1XhiRQtglJ1ex-sSq87N-93" source="1XhiRQtglJ1ex-sSq87N-3" target="1XhiRQtglJ1ex-sSq87N-5">
          <mxGeometry relative="1" as="geometry" />
        </mxCell>
        <mxCell id="1XhiRQtglJ1ex-sSq87N-97" value="yes" style="edgeLabel;html=1;align=center;verticalAlign=middle;resizable=0;points=[];" vertex="1" connectable="0" parent="1XhiRQtglJ1ex-sSq87N-6">
          <mxGeometry x="-0.1414" y="1" relative="1" as="geometry">
            <mxPoint as="offset" />
          </mxGeometry>
        </mxCell>
        <mxCell id="1XhiRQtglJ1ex-sSq87N-11" value="response&lt;br&gt;200&lt;br&gt;(ok)" style="ellipse;whiteSpace=wrap;html=1;aspect=fixed;flipH=0;container=0;" vertex="1" parent="1XhiRQtglJ1ex-sSq87N-93">
          <mxGeometry x="655" y="10" width="80" height="80" as="geometry" />
        </mxCell>
        <mxCell id="1XhiRQtglJ1ex-sSq87N-13" style="edgeStyle=orthogonalEdgeStyle;rounded=0;orthogonalLoop=1;jettySize=auto;html=1;" edge="1" parent="1XhiRQtglJ1ex-sSq87N-93" source="1XhiRQtglJ1ex-sSq87N-5" target="1XhiRQtglJ1ex-sSq87N-11">
          <mxGeometry relative="1" as="geometry" />
        </mxCell>
        <mxCell id="1XhiRQtglJ1ex-sSq87N-14" value="fetch&amp;nbsp;database" style="whiteSpace=wrap;html=1;container=0;" vertex="1" parent="1XhiRQtglJ1ex-sSq87N-93">
          <mxGeometry x="358" y="141" width="94" height="40" as="geometry" />
        </mxCell>
        <mxCell id="1XhiRQtglJ1ex-sSq87N-15" value="" style="edgeStyle=orthogonalEdgeStyle;rounded=0;orthogonalLoop=1;jettySize=auto;html=1;" edge="1" parent="1XhiRQtglJ1ex-sSq87N-93" source="1XhiRQtglJ1ex-sSq87N-3" target="1XhiRQtglJ1ex-sSq87N-14">
          <mxGeometry relative="1" as="geometry" />
        </mxCell>
        <mxCell id="1XhiRQtglJ1ex-sSq87N-16" value="no" style="edgeLabel;html=1;align=center;verticalAlign=middle;resizable=0;points=[];container=0;" vertex="1" connectable="0" parent="1XhiRQtglJ1ex-sSq87N-15">
          <mxGeometry x="-0.3238" y="1" relative="1" as="geometry">
            <mxPoint as="offset" />
          </mxGeometry>
        </mxCell>
        <mxCell id="1XhiRQtglJ1ex-sSq87N-37" value="" style="edgeStyle=orthogonalEdgeStyle;rounded=0;orthogonalLoop=1;jettySize=auto;html=1;" edge="1" parent="1XhiRQtglJ1ex-sSq87N-93" source="1XhiRQtglJ1ex-sSq87N-1" target="1XhiRQtglJ1ex-sSq87N-34">
          <mxGeometry relative="1" as="geometry">
            <mxPoint x="50" y="50" as="sourcePoint" />
            <mxPoint x="203" y="50" as="targetPoint" />
          </mxGeometry>
        </mxCell>
        <mxCell id="1XhiRQtglJ1ex-sSq87N-34" value="sanitize request" style="whiteSpace=wrap;html=1;flipH=0;container=0;" vertex="1" parent="1XhiRQtglJ1ex-sSq87N-93">
          <mxGeometry x="90" y="30" width="97" height="40" as="geometry" />
        </mxCell>
        <mxCell id="1XhiRQtglJ1ex-sSq87N-47" style="edgeStyle=orthogonalEdgeStyle;rounded=0;orthogonalLoop=1;jettySize=auto;html=1;" edge="1" parent="1XhiRQtglJ1ex-sSq87N-93" source="1XhiRQtglJ1ex-sSq87N-46" target="1XhiRQtglJ1ex-sSq87N-5">
          <mxGeometry relative="1" as="geometry" />
        </mxCell>
        <mxCell id="1XhiRQtglJ1ex-sSq87N-48" value="yes" style="edgeLabel;html=1;align=center;verticalAlign=middle;resizable=0;points=[];container=0;" vertex="1" connectable="0" parent="1XhiRQtglJ1ex-sSq87N-47">
          <mxGeometry x="-0.3532" relative="1" as="geometry">
            <mxPoint as="offset" />
          </mxGeometry>
        </mxCell>
        <mxCell id="1XhiRQtglJ1ex-sSq87N-46" value="on&lt;br&gt;database?" style="rhombus;whiteSpace=wrap;html=1;flipH=0;container=0;" vertex="1" parent="1XhiRQtglJ1ex-sSq87N-93">
          <mxGeometry x="505" y="121" width="80" height="80" as="geometry" />
        </mxCell>
        <mxCell id="1XhiRQtglJ1ex-sSq87N-17" style="edgeStyle=orthogonalEdgeStyle;rounded=0;orthogonalLoop=1;jettySize=auto;html=1;" edge="1" parent="1XhiRQtglJ1ex-sSq87N-93" source="1XhiRQtglJ1ex-sSq87N-14" target="1XhiRQtglJ1ex-sSq87N-46">
          <mxGeometry relative="1" as="geometry">
            <mxPoint x="460" y="161" as="targetPoint" />
          </mxGeometry>
        </mxCell>
        <mxCell id="1XhiRQtglJ1ex-sSq87N-49" value="response&lt;br&gt;204&lt;br&gt;(no content)" style="ellipse;whiteSpace=wrap;html=1;aspect=fixed;flipH=0;container=0;" vertex="1" parent="1XhiRQtglJ1ex-sSq87N-93">
          <mxGeometry x="655" y="121" width="80" height="80" as="geometry" />
        </mxCell>
        <mxCell id="1XhiRQtglJ1ex-sSq87N-50" style="edgeStyle=orthogonalEdgeStyle;rounded=0;orthogonalLoop=1;jettySize=auto;html=1;" edge="1" parent="1XhiRQtglJ1ex-sSq87N-93" source="1XhiRQtglJ1ex-sSq87N-46" target="1XhiRQtglJ1ex-sSq87N-49">
          <mxGeometry relative="1" as="geometry" />
        </mxCell>
        <mxCell id="1XhiRQtglJ1ex-sSq87N-51" value="no" style="edgeLabel;html=1;align=center;verticalAlign=middle;resizable=0;points=[];container=0;" vertex="1" connectable="0" parent="1XhiRQtglJ1ex-sSq87N-50">
          <mxGeometry x="-0.1373" y="1" relative="1" as="geometry">
            <mxPoint as="offset" />
          </mxGeometry>
        </mxCell>
        <mxCell id="1XhiRQtglJ1ex-sSq87N-58" value="" style="edgeStyle=orthogonalEdgeStyle;rounded=0;orthogonalLoop=1;jettySize=auto;html=1;" edge="1" parent="1XhiRQtglJ1ex-sSq87N-93" source="1XhiRQtglJ1ex-sSq87N-34" target="1XhiRQtglJ1ex-sSq87N-57">
          <mxGeometry relative="1" as="geometry">
            <mxPoint x="187" y="50" as="sourcePoint" />
            <mxPoint x="365" y="50" as="targetPoint" />
          </mxGeometry>
        </mxCell>
        <mxCell id="1XhiRQtglJ1ex-sSq87N-57" value="inputs&lt;br style=&quot;border-color: var(--border-color);&quot;&gt;is valid&lt;br&gt;with&lt;br&gt;schema" style="rhombus;whiteSpace=wrap;html=1;flipH=1;container=0;" vertex="1" parent="1XhiRQtglJ1ex-sSq87N-93">
          <mxGeometry x="210" width="100" height="100" as="geometry" />
        </mxCell>
        <mxCell id="1XhiRQtglJ1ex-sSq87N-4" style="edgeStyle=orthogonalEdgeStyle;rounded=0;orthogonalLoop=1;jettySize=auto;html=1;" edge="1" parent="1XhiRQtglJ1ex-sSq87N-93" source="1XhiRQtglJ1ex-sSq87N-57" target="1XhiRQtglJ1ex-sSq87N-3">
          <mxGeometry relative="1" as="geometry" />
        </mxCell>
        <mxCell id="1XhiRQtglJ1ex-sSq87N-60" value="yes" style="edgeLabel;html=1;align=center;verticalAlign=middle;resizable=0;points=[];container=0;" vertex="1" connectable="0" parent="1XhiRQtglJ1ex-sSq87N-4">
          <mxGeometry x="-0.2364" y="1" relative="1" as="geometry">
            <mxPoint as="offset" />
          </mxGeometry>
        </mxCell>
        <mxCell id="1XhiRQtglJ1ex-sSq87N-61" value="response&lt;br&gt;400&lt;br&gt;(bad request)" style="ellipse;whiteSpace=wrap;html=1;aspect=fixed;flipH=0;container=0;" vertex="1" parent="1XhiRQtglJ1ex-sSq87N-93">
          <mxGeometry x="655" y="230" width="80" height="80" as="geometry" />
        </mxCell>
        <mxCell id="1XhiRQtglJ1ex-sSq87N-62" style="edgeStyle=orthogonalEdgeStyle;rounded=0;orthogonalLoop=1;jettySize=auto;html=1;exitX=0.5;exitY=1;exitDx=0;exitDy=0;" edge="1" parent="1XhiRQtglJ1ex-sSq87N-93" source="1XhiRQtglJ1ex-sSq87N-57" target="1XhiRQtglJ1ex-sSq87N-61">
          <mxGeometry relative="1" as="geometry">
            <Array as="points">
              <mxPoint x="260" y="265" />
            </Array>
          </mxGeometry>
        </mxCell>
        <mxCell id="1XhiRQtglJ1ex-sSq87N-63" value="no" style="edgeLabel;html=1;align=center;verticalAlign=middle;resizable=0;points=[];container=0;" vertex="1" connectable="0" parent="1XhiRQtglJ1ex-sSq87N-62">
          <mxGeometry x="-0.0665" y="-3" relative="1" as="geometry">
            <mxPoint y="-3" as="offset" />
          </mxGeometry>
        </mxCell>
        <mxCell id="1XhiRQtglJ1ex-sSq87N-94" value="" style="group" vertex="1" connectable="0" parent="1">
          <mxGeometry x="20" y="418" width="735" height="180" as="geometry" />
        </mxCell>
        <mxCell id="1XhiRQtglJ1ex-sSq87N-19" value="post&lt;br&gt;request" style="ellipse;whiteSpace=wrap;html=1;aspect=fixed;flipH=1;" vertex="1" parent="1XhiRQtglJ1ex-sSq87N-94">
          <mxGeometry y="25" width="50" height="50" as="geometry" />
        </mxCell>
        <mxCell id="1XhiRQtglJ1ex-sSq87N-27" value="response&lt;br&gt;201&lt;br&gt;(created)" style="ellipse;whiteSpace=wrap;html=1;aspect=fixed;flipH=1;" vertex="1" parent="1XhiRQtglJ1ex-sSq87N-94">
          <mxGeometry x="655" y="11" width="80" height="80" as="geometry" />
        </mxCell>
        <mxCell id="1XhiRQtglJ1ex-sSq87N-54" style="edgeStyle=orthogonalEdgeStyle;rounded=0;orthogonalLoop=1;jettySize=auto;html=1;" edge="1" parent="1XhiRQtglJ1ex-sSq87N-94" source="1XhiRQtglJ1ex-sSq87N-29" target="1XhiRQtglJ1ex-sSq87N-27">
          <mxGeometry relative="1" as="geometry" />
        </mxCell>
        <mxCell id="1XhiRQtglJ1ex-sSq87N-29" value="insert into database" style="whiteSpace=wrap;html=1;flipH=1;" vertex="1" parent="1XhiRQtglJ1ex-sSq87N-94">
          <mxGeometry x="509" y="31" width="94" height="40" as="geometry" />
        </mxCell>
        <mxCell id="1XhiRQtglJ1ex-sSq87N-41" style="edgeStyle=orthogonalEdgeStyle;rounded=0;orthogonalLoop=1;jettySize=auto;html=1;" edge="1" parent="1XhiRQtglJ1ex-sSq87N-94" source="1XhiRQtglJ1ex-sSq87N-42" target="1XhiRQtglJ1ex-sSq87N-29">
          <mxGeometry relative="1" as="geometry" />
        </mxCell>
        <mxCell id="1XhiRQtglJ1ex-sSq87N-44" value="yes" style="edgeLabel;html=1;align=center;verticalAlign=middle;resizable=0;points=[];" vertex="1" connectable="0" parent="1XhiRQtglJ1ex-sSq87N-41">
          <mxGeometry x="-0.1057" y="-1" relative="1" as="geometry">
            <mxPoint as="offset" />
          </mxGeometry>
        </mxCell>
        <mxCell id="1XhiRQtglJ1ex-sSq87N-31" value="sanitize request" style="whiteSpace=wrap;html=1;flipH=1;" vertex="1" parent="1XhiRQtglJ1ex-sSq87N-94">
          <mxGeometry x="123" y="30" width="97" height="40" as="geometry" />
        </mxCell>
        <mxCell id="1XhiRQtglJ1ex-sSq87N-32" value="" style="edgeStyle=orthogonalEdgeStyle;rounded=0;orthogonalLoop=1;jettySize=auto;html=1;" edge="1" parent="1XhiRQtglJ1ex-sSq87N-94" source="1XhiRQtglJ1ex-sSq87N-19" target="1XhiRQtglJ1ex-sSq87N-31">
          <mxGeometry relative="1" as="geometry" />
        </mxCell>
        <mxCell id="1XhiRQtglJ1ex-sSq87N-43" value="" style="edgeStyle=orthogonalEdgeStyle;rounded=0;orthogonalLoop=1;jettySize=auto;html=1;" edge="1" parent="1XhiRQtglJ1ex-sSq87N-94" source="1XhiRQtglJ1ex-sSq87N-31" target="1XhiRQtglJ1ex-sSq87N-42">
          <mxGeometry relative="1" as="geometry">
            <mxPoint x="300" y="51" as="sourcePoint" />
            <mxPoint x="457" y="51" as="targetPoint" />
          </mxGeometry>
        </mxCell>
        <mxCell id="1XhiRQtglJ1ex-sSq87N-42" value="inputs&lt;br style=&quot;border-color: var(--border-color);&quot;&gt;is valid&lt;br&gt;with&lt;br&gt;schema?" style="rhombus;whiteSpace=wrap;html=1;flipH=1;" vertex="1" parent="1XhiRQtglJ1ex-sSq87N-94">
          <mxGeometry x="290" width="100" height="100" as="geometry" />
        </mxCell>
        <mxCell id="1XhiRQtglJ1ex-sSq87N-45" value="response&lt;br&gt;400&lt;br&gt;(bad request)" style="ellipse;whiteSpace=wrap;html=1;aspect=fixed;" vertex="1" parent="1XhiRQtglJ1ex-sSq87N-94">
          <mxGeometry x="655" y="100" width="80" height="80" as="geometry" />
        </mxCell>
        <mxCell id="1XhiRQtglJ1ex-sSq87N-55" style="edgeStyle=orthogonalEdgeStyle;rounded=0;orthogonalLoop=1;jettySize=auto;html=1;exitX=0.5;exitY=1;exitDx=0;exitDy=0;" edge="1" parent="1XhiRQtglJ1ex-sSq87N-94" source="1XhiRQtglJ1ex-sSq87N-42" target="1XhiRQtglJ1ex-sSq87N-45">
          <mxGeometry relative="1" as="geometry">
            <Array as="points">
              <mxPoint x="340" y="143" />
            </Array>
          </mxGeometry>
        </mxCell>
        <mxCell id="1XhiRQtglJ1ex-sSq87N-56" value="no" style="edgeLabel;html=1;align=center;verticalAlign=middle;resizable=0;points=[];" vertex="1" connectable="0" parent="1XhiRQtglJ1ex-sSq87N-55">
          <mxGeometry x="0.2519" y="-3" relative="1" as="geometry">
            <mxPoint x="-98" y="-3" as="offset" />
          </mxGeometry>
        </mxCell>
        <mxCell id="1XhiRQtglJ1ex-sSq87N-95" value="" style="group" vertex="1" connectable="0" parent="1">
          <mxGeometry x="20" y="648" width="735" height="180" as="geometry" />
        </mxCell>
        <mxCell id="1XhiRQtglJ1ex-sSq87N-38" value="patch&lt;br&gt;request" style="ellipse;whiteSpace=wrap;html=1;aspect=fixed;" vertex="1" parent="1XhiRQtglJ1ex-sSq87N-95">
          <mxGeometry y="25" width="50" height="50" as="geometry" />
        </mxCell>
        <mxCell id="1XhiRQtglJ1ex-sSq87N-64" value="response&lt;br&gt;200&lt;br&gt;(ok)" style="ellipse;whiteSpace=wrap;html=1;aspect=fixed;flipH=1;" vertex="1" parent="1XhiRQtglJ1ex-sSq87N-95">
          <mxGeometry x="655" y="11" width="80" height="80" as="geometry" />
        </mxCell>
        <mxCell id="1XhiRQtglJ1ex-sSq87N-65" style="edgeStyle=orthogonalEdgeStyle;rounded=0;orthogonalLoop=1;jettySize=auto;html=1;" edge="1" source="1XhiRQtglJ1ex-sSq87N-66" target="1XhiRQtglJ1ex-sSq87N-64" parent="1XhiRQtglJ1ex-sSq87N-95">
          <mxGeometry relative="1" as="geometry" />
        </mxCell>
        <mxCell id="1XhiRQtglJ1ex-sSq87N-66" value="update database" style="whiteSpace=wrap;html=1;flipH=1;" vertex="1" parent="1XhiRQtglJ1ex-sSq87N-95">
          <mxGeometry x="509" y="31" width="94" height="40" as="geometry" />
        </mxCell>
        <mxCell id="1XhiRQtglJ1ex-sSq87N-67" style="edgeStyle=orthogonalEdgeStyle;rounded=0;orthogonalLoop=1;jettySize=auto;html=1;" edge="1" source="1XhiRQtglJ1ex-sSq87N-73" target="1XhiRQtglJ1ex-sSq87N-66" parent="1XhiRQtglJ1ex-sSq87N-95">
          <mxGeometry relative="1" as="geometry" />
        </mxCell>
        <mxCell id="1XhiRQtglJ1ex-sSq87N-68" value="yes" style="edgeLabel;html=1;align=center;verticalAlign=middle;resizable=0;points=[];" vertex="1" connectable="0" parent="1XhiRQtglJ1ex-sSq87N-67">
          <mxGeometry x="-0.1057" y="-1" relative="1" as="geometry">
            <mxPoint as="offset" />
          </mxGeometry>
        </mxCell>
        <mxCell id="1XhiRQtglJ1ex-sSq87N-69" value="sanitize request" style="whiteSpace=wrap;html=1;flipH=1;" vertex="1" parent="1XhiRQtglJ1ex-sSq87N-95">
          <mxGeometry x="123" y="30" width="97" height="40" as="geometry" />
        </mxCell>
        <mxCell id="1XhiRQtglJ1ex-sSq87N-75" style="edgeStyle=orthogonalEdgeStyle;rounded=0;orthogonalLoop=1;jettySize=auto;html=1;" edge="1" parent="1XhiRQtglJ1ex-sSq87N-95" source="1XhiRQtglJ1ex-sSq87N-38" target="1XhiRQtglJ1ex-sSq87N-69">
          <mxGeometry relative="1" as="geometry" />
        </mxCell>
        <mxCell id="1XhiRQtglJ1ex-sSq87N-70" value="" style="edgeStyle=orthogonalEdgeStyle;rounded=0;orthogonalLoop=1;jettySize=auto;html=1;" edge="1" source="1XhiRQtglJ1ex-sSq87N-69" target="1XhiRQtglJ1ex-sSq87N-73" parent="1XhiRQtglJ1ex-sSq87N-95">
          <mxGeometry relative="1" as="geometry">
            <mxPoint x="300" y="51" as="sourcePoint" />
            <mxPoint x="457" y="51" as="targetPoint" />
          </mxGeometry>
        </mxCell>
        <mxCell id="1XhiRQtglJ1ex-sSq87N-73" value="inputs&lt;br style=&quot;border-color: var(--border-color);&quot;&gt;is valid&lt;br&gt;with&lt;br&gt;schema?" style="rhombus;whiteSpace=wrap;html=1;flipH=1;" vertex="1" parent="1XhiRQtglJ1ex-sSq87N-95">
          <mxGeometry x="290" width="100" height="100" as="geometry" />
        </mxCell>
        <mxCell id="1XhiRQtglJ1ex-sSq87N-74" value="response&lt;br&gt;400&lt;br&gt;(bad request)" style="ellipse;whiteSpace=wrap;html=1;aspect=fixed;" vertex="1" parent="1XhiRQtglJ1ex-sSq87N-95">
          <mxGeometry x="655" y="100" width="80" height="80" as="geometry" />
        </mxCell>
        <mxCell id="1XhiRQtglJ1ex-sSq87N-71" style="edgeStyle=orthogonalEdgeStyle;rounded=0;orthogonalLoop=1;jettySize=auto;html=1;exitX=0.5;exitY=1;exitDx=0;exitDy=0;" edge="1" source="1XhiRQtglJ1ex-sSq87N-73" target="1XhiRQtglJ1ex-sSq87N-74" parent="1XhiRQtglJ1ex-sSq87N-95">
          <mxGeometry relative="1" as="geometry">
            <Array as="points">
              <mxPoint x="340" y="131" />
            </Array>
          </mxGeometry>
        </mxCell>
        <mxCell id="1XhiRQtglJ1ex-sSq87N-72" value="no" style="edgeLabel;html=1;align=center;verticalAlign=middle;resizable=0;points=[];" vertex="1" connectable="0" parent="1XhiRQtglJ1ex-sSq87N-71">
          <mxGeometry x="0.2519" y="-3" relative="1" as="geometry">
            <mxPoint x="-98" y="-3" as="offset" />
          </mxGeometry>
        </mxCell>
        <mxCell id="1XhiRQtglJ1ex-sSq87N-96" value="" style="group" vertex="1" connectable="0" parent="1">
          <mxGeometry x="30" y="880" width="735" height="180" as="geometry" />
        </mxCell>
        <mxCell id="1XhiRQtglJ1ex-sSq87N-77" value="delete&lt;br&gt;request" style="ellipse;whiteSpace=wrap;html=1;aspect=fixed;container=0;" vertex="1" parent="1XhiRQtglJ1ex-sSq87N-96">
          <mxGeometry y="25" width="50" height="50" as="geometry" />
        </mxCell>
        <mxCell id="1XhiRQtglJ1ex-sSq87N-78" value="response&lt;br&gt;201&lt;br&gt;(created)" style="ellipse;whiteSpace=wrap;html=1;aspect=fixed;flipH=1;container=0;" vertex="1" parent="1XhiRQtglJ1ex-sSq87N-96">
          <mxGeometry x="655" y="10" width="80" height="80" as="geometry" />
        </mxCell>
        <mxCell id="1XhiRQtglJ1ex-sSq87N-79" style="edgeStyle=orthogonalEdgeStyle;rounded=0;orthogonalLoop=1;jettySize=auto;html=1;" edge="1" source="1XhiRQtglJ1ex-sSq87N-80" target="1XhiRQtglJ1ex-sSq87N-78" parent="1XhiRQtglJ1ex-sSq87N-96">
          <mxGeometry relative="1" as="geometry" />
        </mxCell>
        <mxCell id="1XhiRQtglJ1ex-sSq87N-80" value="delete movie id on movie_list table" style="whiteSpace=wrap;html=1;flipH=1;container=0;" vertex="1" parent="1XhiRQtglJ1ex-sSq87N-96">
          <mxGeometry x="476" y="25" width="94" height="50" as="geometry" />
        </mxCell>
        <mxCell id="1XhiRQtglJ1ex-sSq87N-81" style="edgeStyle=orthogonalEdgeStyle;rounded=0;orthogonalLoop=1;jettySize=auto;html=1;" edge="1" source="1XhiRQtglJ1ex-sSq87N-87" target="1XhiRQtglJ1ex-sSq87N-80" parent="1XhiRQtglJ1ex-sSq87N-96">
          <mxGeometry relative="1" as="geometry" />
        </mxCell>
        <mxCell id="1XhiRQtglJ1ex-sSq87N-82" value="yes" style="edgeLabel;html=1;align=center;verticalAlign=middle;resizable=0;points=[];container=0;" vertex="1" connectable="0" parent="1XhiRQtglJ1ex-sSq87N-81">
          <mxGeometry x="-0.1057" y="-1" relative="1" as="geometry">
            <mxPoint as="offset" />
          </mxGeometry>
        </mxCell>
        <mxCell id="1XhiRQtglJ1ex-sSq87N-83" value="sanitize request" style="whiteSpace=wrap;html=1;flipH=1;container=0;" vertex="1" parent="1XhiRQtglJ1ex-sSq87N-96">
          <mxGeometry x="123" y="30" width="97" height="40" as="geometry" />
        </mxCell>
        <mxCell id="1XhiRQtglJ1ex-sSq87N-76" style="edgeStyle=orthogonalEdgeStyle;rounded=0;orthogonalLoop=1;jettySize=auto;html=1;" edge="1" source="1XhiRQtglJ1ex-sSq87N-77" target="1XhiRQtglJ1ex-sSq87N-83" parent="1XhiRQtglJ1ex-sSq87N-96">
          <mxGeometry relative="1" as="geometry" />
        </mxCell>
        <mxCell id="1XhiRQtglJ1ex-sSq87N-84" value="" style="edgeStyle=orthogonalEdgeStyle;rounded=0;orthogonalLoop=1;jettySize=auto;html=1;" edge="1" source="1XhiRQtglJ1ex-sSq87N-83" target="1XhiRQtglJ1ex-sSq87N-87" parent="1XhiRQtglJ1ex-sSq87N-96">
          <mxGeometry relative="1" as="geometry">
            <mxPoint x="300" y="51" as="sourcePoint" />
            <mxPoint x="457" y="51" as="targetPoint" />
          </mxGeometry>
        </mxCell>
        <mxCell id="1XhiRQtglJ1ex-sSq87N-87" value="inputs&lt;br style=&quot;border-color: var(--border-color);&quot;&gt;is valid&lt;br&gt;with&lt;br&gt;schema?" style="rhombus;whiteSpace=wrap;html=1;flipH=1;container=0;" vertex="1" parent="1XhiRQtglJ1ex-sSq87N-96">
          <mxGeometry x="290" width="100" height="100" as="geometry" />
        </mxCell>
        <mxCell id="1XhiRQtglJ1ex-sSq87N-88" value="response&lt;br&gt;400&lt;br&gt;(bad request)" style="ellipse;whiteSpace=wrap;html=1;aspect=fixed;container=0;" vertex="1" parent="1XhiRQtglJ1ex-sSq87N-96">
          <mxGeometry x="655" y="100" width="80" height="80" as="geometry" />
        </mxCell>
        <mxCell id="1XhiRQtglJ1ex-sSq87N-85" style="edgeStyle=orthogonalEdgeStyle;rounded=0;orthogonalLoop=1;jettySize=auto;html=1;exitX=0.5;exitY=1;exitDx=0;exitDy=0;" edge="1" source="1XhiRQtglJ1ex-sSq87N-87" target="1XhiRQtglJ1ex-sSq87N-88" parent="1XhiRQtglJ1ex-sSq87N-96">
          <mxGeometry relative="1" as="geometry">
            <Array as="points">
              <mxPoint x="340" y="131" />
            </Array>
          </mxGeometry>
        </mxCell>
        <mxCell id="1XhiRQtglJ1ex-sSq87N-86" value="no" style="edgeLabel;html=1;align=center;verticalAlign=middle;resizable=0;points=[];container=0;" vertex="1" connectable="0" parent="1XhiRQtglJ1ex-sSq87N-85">
          <mxGeometry x="0.2519" y="-3" relative="1" as="geometry">
            <mxPoint x="-98" y="-3" as="offset" />
          </mxGeometry>
        </mxCell>
      </root>
    </mxGraphModel>
  </diagram>
</mxfile>
